inDegrees=no
num_controls=7
num_derivatives=13
num_iterations=107
num_multipliers=7
num_parameters=0
num_slacks=7
num_states=26
objective=5.643591
objective_accelerations=0.867505
objective_balance=0.076297
objective_effort=0.469407
objective_height=4.188624
objective_ligament=0.041759
solver_duration=1169.016595
status=Solve_Succeeded
success=true
DataType=double
version=3
OpenSimVersion=4.4-2022-07-23-0e9fedc
endheader
time	/jointset/ground_pelvis/pelvis_tilt/value	/jointset/ground_pelvis/pelvis_tx/value	/jointset/ground_pelvis/pelvis_ty/value	/jointset/hip_l/hip_flexion_l/value	/jointset/hip_l/hip_adduction_l/value	/jointset/hip_l/hip_rotation_l/value	/jointset/back/lumbar_extension/value	/jointset/patellofemoral_l/patellar_flexion_l/value	/jointset/knee_l/knee_flexion_l/value	/jointset/knee_l/knee_adduction_l/value	/jointset/knee_l/knee_rotation_l/value	/jointset/ankle_l/ankle_angle_l/value	/jointset/subtalar_l/subtalar_angle_l/value	/jointset/ground_pelvis/pelvis_tilt/speed	/jointset/ground_pelvis/pelvis_tx/speed	/jointset/ground_pelvis/pelvis_ty/speed	/jointset/hip_l/hip_flexion_l/speed	/jointset/hip_l/hip_adduction_l/speed	/jointset/hip_l/hip_rotation_l/speed	/jointset/back/lumbar_extension/speed	/jointset/patellofemoral_l/patellar_flexion_l/speed	/jointset/knee_l/knee_flexion_l/speed	/jointset/knee_l/knee_adduction_l/speed	/jointset/knee_l/knee_rotation_l/speed	/jointset/ankle_l/ankle_angle_l/speed	/jointset/subtalar_l/subtalar_angle_l/speed	/forceset/tau_hip_flexion_l	/forceset/tau_hip_adduction_l	/forceset/tau_hip_rotation_l	/forceset/tau_knee_flexion_l	/forceset/tau_ankle_angle_l	/forceset/tau_subtalar_angle_l	/forceset/tau_lumbar_extension	lambda_cid13_p0	lambda_cid13_p1	lambda_cid13_p2	lambda_cid13_p3	lambda_cid13_p4	lambda_cid13_p5	lambda_cid14_p0	/jointset/ground_pelvis/pelvis_tilt/accel	/jointset/ground_pelvis/pelvis_tx/accel	/jointset/ground_pelvis/pelvis_ty/accel	/jointset/hip_l/hip_flexion_l/accel	/jointset/hip_l/hip_adduction_l/accel	/jointset/hip_l/hip_rotation_l/accel	/jointset/back/lumbar_extension/accel	/jointset/patellofemoral_l/patellar_flexion_l/accel	/jointset/knee_l/knee_flexion_l/accel	/jointset/knee_l/knee_adduction_l/accel	/jointset/knee_l/knee_rotation_l/accel	/jointset/ankle_l/ankle_angle_l/accel	/jointset/subtalar_l/subtalar_angle_l/accel	gamma_cid13_p0	gamma_cid13_p1	gamma_cid13_p2	gamma_cid13_p3	gamma_cid13_p4	gamma_cid13_p5	gamma_cid14_p0
0.5	-0.3399517526163015	-0.03660538304886637	0.7082228050485949	1.363753839328837	-0.2521032141446202	-0.02542222598215803	-0.3555667729760639	1.079308523375825	1.079308523375837	0.004991533745283681	0.1745278607978	0.2642025431974772	0.06797548674627787	-0.3689902276115932	-0.1086440695886159	-0.7671417253093276	2.570007547295795	0.06778700962634636	0.4299923846002678	-0.5956958197317014	2.802040264439369	2.802040264439297	0.4534572969882851	0.0008275306889546827	0.7504767615640627	0.2852618908036437	-0.2057669287863772	0.005418629851835488	-0.008582290271007546	-0.3044508787146284	0.09914654474244783	0.02255910213298243	0.2052986623894228	-5.386391386760012	-7.540444026528993	-0.7010054486439347	-9.031161910037559	-600.1296831030216	-58.66564434351634	-4.6862872144191	1.18541808258472	0.9789919182265879	-0.6401008010966155	-2.018732789986554	-0.08962207347773371	-0.9431970242802461	2.278252505622444	-1.892463444167758	-1.892463444167755	-0.3474337098207244	-0.1761422943920591	-1.271346594670567	-0.08263001578137073	-4.749910423580315e-08	-5.290734332975623e-06	-1.816879986817301e-06	-7.155908407762441e-07	-3.687666744253114e-07	-3.231233768102884e-06	-2.749279362063987e-07
0.51	-0.3435815366089557	-0.03764284493577767	0.700521305783157	1.389349252902322	-0.2514318583145612	-0.0211736434592034	-0.36140957693633	1.10722986371068	1.107229863710699	0.009508818178052074	0.1745325164650461	0.2716416951621422	0.07082067908565796	-0.3568965827822262	-0.09884389471756187	-0.7729701906540591	2.54874722679588	0.06642976528600564	0.4196983018427274	-0.5728131825467434	2.781852012314676	2.781852012314644	0.4499636723645044	0.0001758853715867826	0.7372251130829566	0.2836551383630004	-0.212693051027598	0.006005043916935183	-0.00896683860004429	-0.3098586031439831	0.09703319371676877	0.02280449177485332	0.2113166879775135	-6.490943634830984	-7.220473936375139	-1.018322335401185	-8.535677958617924	-607.4275442848713	-58.7841214298014	-3.438147384797838	1.231810888052347	0.9810652401626004	-0.5261107000533802	-2.228899749421996	-0.1665007498419937	-1.076827713276679	2.301037791012992	-2.138312645995418	-2.13831264598954	-0.3564424489758379	0.001469252401198323	-1.371546979621077	-0.2169725734020627	-5.785988584683764e-08	-4.923672708098812e-06	-1.52827804926596e-06	-6.528950830602762e-07	-3.838159215851366e-07	-3.155874198912412e-06	-2.5793485418111e-07
0.52	-0.3470882895123245	-0.0385821980802549	0.6927671436044933	1.414722219656917	-0.2507756199550109	-0.01702886452620389	-0.3670220008315305	1.134938060214417	1.134938060214439	0.01398994324252886	0.174532884659337	0.2789444360410371	0.07364634895759234	-0.3443840097552796	-0.08902232110179768	-0.7776743079544866	2.52551818351884	0.06476351552450101	0.4092316666137558	-0.5496198067185701	2.759411498214969	2.759411498214977	0.4462254233279515	-2.996383336865379e-05	0.723194544410233	0.2813573973145064	-0.2196191732688687	0.006591457981940435	-0.009351386929066612	-0.3152663275733429	0.0949198426910705	0.02304988141659555	0.217334713565564	-7.586189968717916	-6.920752798461899	-1.311145568379987	-8.140535422287574	-614.6063721398716	-58.97207289952024	-2.380857239323502	1.269203722100564	0.9832716671686099	-0.4152311922357939	-2.412477345411442	-0.1514231577100919	-0.9777075185658974	2.340400234265419	-2.342915839170665	-2.342915839170673	-0.3963585923750382	-0.08698307191047175	-1.427130632994045	-0.2208277373509855	3.740616187107034e-08	-4.677414989216112e-06	-2.207272156937159e-06	-6.891237028798314e-07	-3.322510948696572e-07	-3.377212073556628e-06	-1.529091656173792e-07
0.53	-0.3504681450605849	-0.03942333939838952	0.6849716251671307	1.439853425652378	-0.250136899778693	-0.01298966066393107	-0.3724010239053786	1.162410692183305	1.162410692183325	0.01843384622906017	0.1745323450159249	0.2861032726926558	0.07644644152045553	-0.331534547480313	-0.07920994887677528	-0.7812347955631517	2.500406940243778	0.06295042248366527	0.3986452269525234	-0.5261536644221986	2.734751948893638	2.734751948893594	0.4425019565538637	-7.141773343864654e-05	0.7084669928990373	0.2785695933356851	-0.2262078633839189	0.006950463819847527	-0.009833182318314277	-0.3212705858794827	0.09303077502152231	0.02318841652390127	0.2230535014711316	-8.637354303776847	-6.584721987726462	-1.607037086436993	-7.653546740870962	-622.008393851642	-59.1678158527549	-1.522518143396063	1.300697623842902	0.9794774170921257	-0.2973309852764635	-2.607861162769519	-0.2001947626268797	-1.093912131485034	2.354392771522266	-2.581896929921354	-2.581896929929133	-0.3689329464154001	0.03886103230984906	-1.511614432793391	-0.3204609990801235	1.056203764583032e-07	-4.415935702056475e-06	-2.628965931764849e-06	-7.059877633025603e-07	-2.901268819289563e-07	-3.514473714913451e-06	-7.517937612344653e-08
